<?xml version="1.0" encoding="UTF-8" standalone="no"?>
<!DOCTYPE svg PUBLIC "-//W3C//DTD SVG 1.1//EN" "http://www.w3.org/Graphics/SVG/1.1/DTD/svg11.dtd">
<!-- Generated by Microsoft Visio, SVG Export Setup.svg Page-1 -->
<svg xmlns="http://www.w3.org/2000/svg" xmlns:xlink="http://www.w3.org/1999/xlink" xmlns:ev="http://www.w3.org/2001/xml-events"
		xmlns:v="http://schemas.microsoft.com/visio/2003/SVGExtensions/" width="11in" height="8.5in" viewBox="0 0 792 612"
		xml:space="preserve" color-interpolation-filters="sRGB" class="st22">
	<v:documentProperties v:langID="1033" v:viewMarkup="false">
		<v:userDefs>
			<v:ud v:nameU="msvNoAutoConnect" v:prompt="" v:val="VT0(0):26"/>
		</v:userDefs>
	</v:documentProperties>

	<style type="text/css">
	<![CDATA[
		.st1 {fill:#ffffff;stroke:#5b9bd5;stroke-linecap:round;stroke-linejoin:round;stroke-width:0.5}
		.st2 {fill:url(#grad0-9);stroke:none;stroke-linecap:butt;stroke-width:0.75}
		.st3 {fill:url(#grad0-13);stroke:none;stroke-linecap:butt;stroke-width:0.75}
		.st4 {fill:#50e6ff;stroke:none;stroke-linecap:butt;stroke-width:0.75}
		.st5 {fill:#1490df;stroke:none;stroke-linecap:butt;stroke-width:0.75}
		.st6 {fill:#000000;font-family:Calibri;font-size:0.75em}
		.st7 {font-size:1em}
		.st8 {fill:url(#grad0-36);stroke:none;stroke-linecap:butt;stroke-width:0.75}
		.st9 {fill:#ffffff;stroke:none;stroke-linecap:butt;stroke-width:0.75}
		.st10 {fill:url(#grad0-46);stroke:none;stroke-linecap:butt;stroke-width:0.75}
		.st11 {fill:#ffffff;fill-opacity:0.2;stroke:none;stroke-linecap:butt;stroke-width:0.75}
		.st12 {fill:url(#grad0-104);stroke:none;stroke-linecap:butt;stroke-width:0.75}
		.st13 {fill:#c3f1ff;stroke:none;stroke-linecap:butt;stroke-width:0.75}
		.st14 {fill:#9cebff;stroke:none;stroke-linecap:butt;stroke-width:0.75}
		.st15 {fill:url(#grad0-118);stroke:none;stroke-linecap:butt;stroke-width:0.75}
		.st16 {fill:url(#grad0-164);stroke:none;stroke-linecap:butt;stroke-width:0.75}
		.st17 {fill:#f2f2f2;stroke:none;stroke-linecap:butt;stroke-width:0.75}
		.st18 {marker-end:url(#mrkr4-182);stroke:#5592c9;stroke-linecap:round;stroke-linejoin:round;stroke-width:0.5}
		.st19 {fill:#5592c9;fill-opacity:1;stroke:#5592c9;stroke-opacity:1;stroke-width:0.16556291390728}
		.st20 {fill:url(#grad0-202);stroke:none;stroke-linecap:butt;stroke-width:0.75}
		.st21 {fill:#767676;stroke:none;stroke-linecap:butt;stroke-width:0.75}
		.st22 {fill:none;fill-rule:evenodd;font-size:12px;overflow:visible;stroke-linecap:square;stroke-miterlimit:3}
	]]>
	</style>

	<defs id="Patterns_And_Gradients">
		<linearGradient id="grad0-9" x1="0" y1="0" x2="1" y2="0" gradientTransform="rotate(44.92 0.5 0.5)">
			<stop offset="0" stop-color="#86d633" stop-opacity="1"/>
			<stop offset="1" stop-color="#5e9624" stop-opacity="1"/>
		</linearGradient>
		<linearGradient id="grad0-13" x1="0" y1="0" x2="1" y2="0" gradientTransform="rotate(45.175215904905 0.5 0.5)">
			<stop offset="0" stop-color="#86d633" stop-opacity="1"/>
			<stop offset="1" stop-color="#5e9624" stop-opacity="1"/>
		</linearGradient>
		<linearGradient id="grad0-36" x1="0" y1="0" x2="1" y2="0" gradientTransform="rotate(-45 0.5 0.5)">
			<stop offset="0" stop-color="#258277" stop-opacity="1"/>
			<stop offset="0.42" stop-color="#49a498" stop-opacity="1"/>
			<stop offset="0.78" stop-color="#60baad" stop-opacity="1"/>
			<stop offset="1" stop-color="#68c2b5" stop-opacity="1"/>
		</linearGradient>
		<linearGradient id="grad0-46" x1="0" y1="0" x2="1" y2="0" gradientTransform="rotate(88.546233687646 0.5 0.5)">
			<stop offset="0.22" stop-color="#32d4f5" stop-opacity="1"/>
			<stop offset="0.47" stop-color="#31d1f3" stop-opacity="1"/>
			<stop offset="0.63" stop-color="#2ec9eb" stop-opacity="1"/>
			<stop offset="0.77" stop-color="#29bade" stop-opacity="1"/>
			<stop offset="0.89" stop-color="#22a5cb" stop-opacity="1"/>
			<stop offset="1" stop-color="#198ab3" stop-opacity="1"/>
			<stop offset="1" stop-color="#198ab3" stop-opacity="1"/>
		</linearGradient>
		<linearGradient id="grad0-104" x1="0" y1="0" x2="1" y2="0" gradientTransform="rotate(-90 0.5 0.5)">
			<stop offset="0" stop-color="#0078d4" stop-opacity="1"/>
			<stop offset="0.82" stop-color="#5ea0ef" stop-opacity="1"/>
		</linearGradient>
		<linearGradient id="grad0-118" x1="0" y1="0" x2="1" y2="0" gradientTransform="rotate(-90 0.5 0.5)">
			<stop offset="0.15" stop-color="#cccccc" stop-opacity="1"/>
			<stop offset="1" stop-color="#707070" stop-opacity="1"/>
		</linearGradient>
		<linearGradient id="grad0-164" x1="0" y1="0" x2="1" y2="0" gradientTransform="rotate(-90 0.5 0.5)">
			<stop offset="0" stop-color="#005ba1" stop-opacity="1"/>
			<stop offset="0.15" stop-color="#0063af" stop-opacity="1"/>
			<stop offset="0.44" stop-color="#006fc3" stop-opacity="1"/>
			<stop offset="0.725" stop-color="#0076d0" stop-opacity="1"/>
			<stop offset="1" stop-color="#0078d4" stop-opacity="1"/>
		</linearGradient>
		<linearGradient id="grad0-202" x1="0" y1="0" x2="1" y2="0" gradientTransform="rotate(-90 0.5 0.5)">
			<stop offset="0" stop-color="#32bedd" stop-opacity="1"/>
			<stop offset="0.18" stop-color="#32caea" stop-opacity="1"/>
			<stop offset="0.41" stop-color="#32d2f2" stop-opacity="1"/>
			<stop offset="0.78" stop-color="#32d4f5" stop-opacity="1"/>
		</linearGradient>
	</defs>
	<defs id="Markers">
		<g id="lend4">
			<path d="M 2 1 L 0 0 L 2 -1 L 2 1 " style="stroke:none"/>
		</g>
		<marker id="mrkr4-182" class="st19" v:arrowType="4" v:arrowSize="2" v:setback="12.08" refX="-12.08" orient="auto"
				markerUnits="strokeWidth" overflow="visible">
			<use xlink:href="#lend4" transform="scale(-6.04,-6.04) "/>
		</marker>
	</defs>
	<g v:mID="0" v:index="1" v:groupContext="foregroundPage">
		<v:userDefs>
			<v:ud v:nameU="msvThemeOrder" v:val="VT0(0):26"/>
		</v:userDefs>
		<title>Page-1</title>
		<v:pageProperties v:drawingScale="1" v:pageScale="1" v:drawingUnits="0" v:shadowOffsetX="9" v:shadowOffsetY="-9"/>
		<v:layer v:name="Connector" v:index="0"/>
		<g id="shape32-1" v:mID="32" v:groupContext="shape" transform="translate(243,-335.204)">
			<title>Sheet.32</title>
			<rect x="0" y="486" width="297" height="126" class="st1"/>
		</g>
		<g id="shape33-3" v:mID="33" v:groupContext="shape" transform="translate(225,-107.815)">
			<title>Sheet.33</title>
			<rect x="0" y="459" width="91.8" height="153" class="st1"/>
		</g>
		<g id="group9-5" transform="translate(504,-318.706)" v:mID="9" v:groupContext="group">
			<v:userDefs>
				<v:ud v:nameU="msvDisableCustomConnectionPoints" v:prompt="" v:val="VT0(1):5"/>
			</v:userDefs>
			<title>Virtual Networks</title>
			<desc>VNet01 10.1.0.0/24 10.1.0.0/25 Tenant 10.1.0.128/25 GW</desc>
			<g id="shape10-6" v:mID="10" v:groupContext="shape" transform="translate(37.0573,-13.5678)">
				<title>Sheet.10</title>
				<v:userDefs>
					<v:ud v:nameU="msvDisableCustomConnectionPoints" v:prompt="" v:val="VT0(1):5"/>
				</v:userDefs>
				<ellipse cx="3.71076" cy="608.289" rx="3.71076" ry="3.71076" class="st2"/>
			</g>
			<g id="shape11-10" v:mID="11" v:groupContext="shape" transform="translate(25.2213,-13.5358)">
				<title>Sheet.11</title>
				<v:userDefs>
					<v:ud v:nameU="msvDisableCustomConnectionPoints" v:prompt="" v:val="VT0(1):5"/>
				</v:userDefs>
				<ellipse cx="3.71076" cy="608.289" rx="3.71076" ry="3.71076" class="st3"/>
			</g>
			<g id="shape12-14" v:mID="12" v:groupContext="shape" transform="translate(13.3852,-13.5358)">
				<title>Sheet.12</title>
				<v:userDefs>
					<v:ud v:nameU="msvDisableCustomConnectionPoints" v:prompt="" v:val="VT0(1):5"/>
				</v:userDefs>
				<ellipse cx="3.71076" cy="608.289" rx="3.71076" ry="3.71076" class="st3"/>
			</g>
			<g id="shape13-17" v:mID="13" v:groupContext="shape" transform="translate(441.28,1018.11) rotate(134.92)">
				<title>Sheet.13</title>
				<v:userDefs>
					<v:ud v:nameU="msvDisableCustomConnectionPoints" v:prompt="" v:val="VT0(1):5"/>
				</v:userDefs>
				<path d="M8.35 586.92 L11.36 586.92 a0.959679 0.959679 0 0 1 0.959679 0.959679 L12.32 610.08 A1.91936 1.91936 0 0
							 1 10.4 612 L7.39 612 L7.39 587.88 a0.959679 0.959679 0 0 1 0.959679 -0.959679 Z" class="st4"/>
			</g>
			<g id="shape14-19" v:mID="14" v:groupContext="shape" transform="translate(426.23,156.199) rotate(44.92)">
				<title>Sheet.14</title>
				<v:userDefs>
					<v:ud v:nameU="msvDisableCustomConnectionPoints" v:prompt="" v:val="VT0(1):5"/>
				</v:userDefs>
				<path d="M8.19 587.27 L11.2 587.27 a0.959679 0.959679 0 0 1 0.959679 0.959679 L12.16 612 L9.15 612 A1.91936 1.91936
							 0 0 1 7.23 610.08 L7.23 588.23 a0.959679 0.959679 0 0 1 0.959679 -0.959679 Z" class="st5"/>
			</g>
			<g id="shape15-21" v:mID="15" v:groupContext="shape" transform="translate(470.491,176.735) rotate(45.08)">
				<title>Sheet.15</title>
				<v:userDefs>
					<v:ud v:nameU="msvDisableCustomConnectionPoints" v:prompt="" v:val="VT0(1):5"/>
				</v:userDefs>
				<path d="M0 586.92 L3.01 586.92 A1.91936 1.91936 0 0 1 4.93 588.84 L4.93 611.04 a0.959679 0.959679 0 0 1 -0.959679
							 0.959679 L0.96 612 a0.959679 0.959679 0 0 1 -0.959679 -0.959679 L0 586.92 Z" class="st4"/>
			</g>
			<g id="shape16-23" v:mID="16" v:groupContext="shape" transform="translate(473.079,1010.46) rotate(135.08)">
				<title>Sheet.16</title>
				<v:userDefs>
					<v:ud v:nameU="msvDisableCustomConnectionPoints" v:prompt="" v:val="VT0(1):5"/>
				</v:userDefs>
				<path d="M1.95 587.27 L4.96 587.27 L4.96 611.04 a0.959679 0.959679 0 0 1 -0.959679 0.959679 L0.96 612 a0.959679 0.959679
							 0 0 1 -0.959679 -0.959679 L0 589.19 A1.91936 1.91936 0 0 1 1.92 587.27 L1.95 587.27 Z" class="st5"/>
			</g>
			<g id="shape9-25" v:mID="9" v:groupContext="groupContent">
				<v:textBlock v:margins="rect(0,0,0,0)"/>
				<v:textRect cx="28.8" cy="637.922" width="72" height="43.2036"/>
				<text x="15.03" y="624.42" class="st6" v:langID="1033"><v:paragraph v:horizAlign="1"/><v:tabList/>VNet01<v:newlineChar/><tspan
							x="7.69" dy="1.2em" class="st7">10.1.0.0/24<v:newlineChar/></tspan><tspan x="-6.15" dy="1.2em"
							class="st7">10.1.0.0/25 Tenant<v:newlineChar/></tspan><tspan x="-4.73" dy="1.2em" class="st7">10.1.0.128/25 GW</tspan></text>			</g>
		</g>
		<g id="shape42-30" v:mID="42" v:groupContext="shape" transform="translate(396,-107.157)">
			<title>Sheet.42</title>
			<rect x="0" y="459" width="180" height="153" class="st1"/>
		</g>
		<g id="group22-32" transform="translate(369,-229.557)" v:mID="22" v:groupContext="group">
			<v:userDefs>
				<v:ud v:nameU="msvDisableCustomConnectionPoints" v:prompt="" v:val="VT0(1):5"/>
			</v:userDefs>
			<title>Local Network Gateways</title>
			<desc>Local Network Gateways</desc>
			<g id="shape23-33" v:mID="23" v:groupContext="shape" transform="translate(-403.949,179.251) rotate(-45)">
				<title>Sheet.23</title>
				<v:userDefs>
					<v:ud v:nameU="msvDisableCustomConnectionPoints" v:prompt="" v:val="VT0(1):5"/>
				</v:userDefs>
				<path d="M0 610.12 A1.87986 1.87986 -180 0 0 1.88 612 L38.85 612 A1.87986 1.87986 -180 0 0 40.73 610.12 L40.73 573.15
							 A1.87986 1.87986 -180 0 0 38.85 571.27 L1.88 571.27 A1.87986 1.87986 -180 0 0 0 573.15 L0 610.12 Z"
						class="st8"/>
			</g>
			<g id="shape24-37" v:mID="24" v:groupContext="shape" transform="translate(8.08624,-8.2586)">
				<title>Sheet.24</title>
				<v:userDefs>
					<v:ud v:nameU="msvDisableCustomConnectionPoints" v:prompt="" v:val="VT0(1):5"/>
				</v:userDefs>
				<path d="M14.31 577.21 L20.51 571.01 a0.329792 0.329792 0 0 1 0.461709 1.13687E-13 L27.34 577.21 a0.296813 0.296813
							 0 0 1 -0.230855 0.527668 L23.32 577.74 a0.329792 0.329792 -180 0 0 -0.329792 0.329792 L22.99 586.08
							 a0.296813 0.296813 0 0 1 -0.296813 0.296813 L18.83 586.38 a0.296813 0.296813 0 0 1 -0.329792 -0.296813
							 L18.5 578.07 a0.329792 0.329792 -180 0 0 -0.296813 -0.329792 L14.54 577.74 a0.329792 0.329792 0 0 1
							 -0.230855 -0.527668 ZM27.34 605.71 L20.97 611.91 a0.329792 0.329792 0 0 1 -0.461709 0 L14.31 605.71
							 a0.329792 0.329792 0 0 1 0.230855 -0.527668 L18.2 605.18 a0.329792 0.329792 -180 0 0 0.296813 -0.329792
							 L18.5 596.83 a0.296813 0.296813 0 0 1 0.329792 -0.296813 L22.69 596.54 a0.296813 0.296813 0 0 1 0.296813
							 0.296813 L22.99 604.85 a0.329792 0.329792 -180 0 0 0.329792 0.329792 L26.94 605.18 a0.329792 0.329792
							 0 1 1 0.395751 0.527668 ZM8.67 597.53 L8.67 593.9 a0.362772 0.362772 -180 0 0 -0.329792 -0.329792 L0.33
							 593.57 a0.329792 0.329792 0 0 1 -0.329792 -0.296813 L0 589.41 a0.362772 0.362772 0 0 1 0.329792 -0.329792
							 L8.34 589.08 a0.329792 0.329792 -180 0 0 0.329792 -0.296813 L8.67 585.13 a0.296813 0.296813 0 0 1 0.527668
							 -0.263834 L15.4 591.13 a0.296813 0.296813 0 0 1 1.08358E-13 0.42873 L9.2 597.76 a0.296813 0.296813 0
							 0 1 -0.527668 -0.230855 ZM32.81 585.13 L32.81 588.79 a0.329792 0.329792 -180 0 0 0.329792 0.296813 L41.16
							 589.08 a0.362772 0.362772 0 0 1 0.329792 0.329792 L41.49 593.27 a0.329792 0.329792 0 0 1 -0.329792 0.296813
							 L33.14 593.57 a0.362772 0.362772 -180 0 0 -0.329792 0.329792 L32.81 597.53 a0.296813 0.296813 0 0 1
							 -0.527668 0.230855 L26.09 591.46 a0.296813 0.296813 0 0 1 -2.13163E-14 -0.42873 L32.29 584.86 a0.296813
							 0.296813 0 0 1 0.527668 0.263834 Z" class="st9"/>
			</g>
			<g id="shape22-39" v:mID="22" v:groupContext="groupContent">
				<v:textBlock v:margins="rect(0,0,0,0)"/>
				<v:textRect cx="28.8" cy="624.962" width="72" height="21.6036"/>
				<text x="2.57" y="622.26" class="st6" v:langID="1033"><v:paragraph v:horizAlign="1"/><v:tabList/>Local Network <tspan
							x="10.89" dy="1.2em" class="st7">Gateways</tspan></text>			</g>
		</g>
		<g id="group17-42" transform="translate(369.864,-389.204)" v:mID="17" v:groupContext="group">
			<v:userDefs>
				<v:ud v:nameU="msvDisableCustomConnectionPoints" v:prompt="" v:val="VT0(1):5"/>
			</v:userDefs>
			<title>Virtual Network Gateways</title>
			<desc>VPN Gateway</desc>
			<g id="shape18-43" v:mID="18" v:groupContext="shape">
				<title>Sheet.18</title>
				<v:userDefs>
					<v:ud v:nameU="msvDisableCustomConnectionPoints" v:prompt="" v:val="VT0(1):5"/>
				</v:userDefs>
				<path d="M40.97 582.07 L37.78 582.07 L37.78 572.24 A18.5405 18.5405 -180 0 0 33.03 559.73 A15.2855 15.2855 -180 0
							 0 21.35 554.4 A15.2855 15.2855 -180 0 0 9.54 559.73 A18.2852 18.2852 -180 0 0 4.79 572.24 L4.79 582.07
							 L2.2 582.07 A2.2338 2.2338 -180 0 0 0 584.27 L0 609.8 A2.2338 2.2338 -180 0 0 2.2 612 L40.97 612 A2.26571
							 2.26571 -180 0 0 43.21 609.8 L43.21 584.27 A2.26571 2.26571 -180 0 0 40.97 582.07 ZM30.22 582.07 L12.48
							 582.07 L12.48 572.08 A10.1478 10.1478 0 0 1 15.25 565.22 A8.00975 8.00975 0 0 1 21.25 562.47 A8.10548
							 8.10548 0 0 1 27.28 565.22 A10.1797 10.1797 0 0 1 28.31 566.59 A9.57341 9.57341 0 0 1 30.25 572.05 L30.22
							 582.07 Z" class="st10"/>
			</g>
			<g id="shape19-47" v:mID="19" v:groupContext="shape" transform="translate(0.829695,-0.670139)">
				<title>Sheet.19</title>
				<v:userDefs>
					<v:ud v:nameU="msvDisableCustomConnectionPoints" v:prompt="" v:val="VT0(1):5"/>
				</v:userDefs>
				<path d="M40.24 582.74 L1.4 582.74 A2.10615 2.10615 -180 0 0 -0 583.28 L41.64 612 A2.13806 2.13806 -180 0 0 42.44
							 610.34 L42.44 584.81 A2.26571 2.26571 -180 0 0 40.24 582.74 Z" class="st4"/>
			</g>
			<g id="shape20-49" v:mID="20" v:groupContext="shape" transform="translate(0.0638227,-0.670139)">
				<title>Sheet.20</title>
				<v:userDefs>
					<v:ud v:nameU="msvDisableCustomConnectionPoints" v:prompt="" v:val="VT0(1):5"/>
				</v:userDefs>
				<path d="M2.23 582.74 L41.04 582.74 A2.2338 2.2338 0 0 1 42.47 583.28 L0.8 612 A2.2338 2.2338 0 0 1 0 610.34 L0 584.81
							 A2.29762 2.29762 0 0 1 2.23 582.74 Z" class="st11"/>
			</g>
			<g id="shape21-51" v:mID="21" v:groupContext="shape" transform="translate(5.48875,-2.42426)">
				<title>Sheet.21</title>
				<v:userDefs>
					<v:ud v:nameU="msvDisableCustomConnectionPoints" v:prompt="" v:val="VT0(1):5"/>
				</v:userDefs>
				<path d="M12.32 590.65 L16.15 586.82 a0.22338 0.22338 0 0 1 0.287202 2.27374E-13 L20.23 590.65 a0.191468 0.191468
							 0 0 1 -7.81597E-14 0.319114 L18 590.97 a0.191468 0.191468 -180 0 0 -0.191468 0.191468 L17.81 596.08
							 a0.191468 0.191468 0 0 1 -0.191468 0.191468 L15.09 596.27 a0.159557 0.159557 0 0 1 -0.191468 -0.191468
							 L14.9 591.16 a0.22338 0.22338 -180 0 0 -0.22338 -0.191468 L12.45 590.97 a0.191468 0.191468 0 0 1 -0.127645
							 -0.319114 ZM20.2 608.14 L16.4 611.94 a0.191468 0.191468 0 0 1 -0.287202 0 L12.32 608.14 a0.191468 0.191468
							 0 0 1 3.19744E-14 -0.319114 L14.55 607.82 a0.22338 0.22338 -180 0 0 0.22338 -0.191468 L14.77 602.68
							 a0.191468 0.191468 0 0 1 0.191468 -0.191468 L17.33 602.49 a0.191468 0.191468 0 0 1 0.191468 0.191468
							 L17.52 607.63 a0.191468 0.191468 -180 0 0 0.191468 0.191468 L19.94 607.82 a0.204332 0.204332 0 0 1 0.255291
							 0.319114 ZM5.2 603.19 L5.2 600.96 a0.191468 0.191468 -180 0 0 -0.191468 -0.191468 L0.19 600.77 a0.191468
							 0.191468 0 0 1 -0.191468 -0.191468 L0 598.31 a0.191468 0.191468 0 0 1 0.191468 -0.287202 L5.01 598.02
							 a0.191468 0.191468 -180 0 0 0.191468 -0.191468 L5.2 595.6 a0.22338 0.22338 0 0 1 0.351025 -0.159557
							 L9.35 599.27 a0.191468 0.191468 0 0 1 7.10543E-15 0.255291 L5.55 603.35 a0.22338 0.22338 0 0 1 -0.351025
							 -0.159557 ZM27.32 595.6 L27.32 597.83 a0.191468 0.191468 -180 0 0 0.191468 0.191468 L32.42 598.02 C32.42
							 598.02 32.65 598.02 32.65 598.21 L32.65 600.57 a0.22338 0.22338 0 0 1 -0.22338 0.191468 L27.51 600.77
							 a0.191468 0.191468 -180 0 0 -0.191468 0.191468 L27.32 603.19 a0.191468 0.191468 0 0 1 -0.319114 0.159557
							 L23.2 599.52 L23.2 599.27 L27 595.44 C27 595.44 27.32 595.41 27.32 595.6 Z" class="st9"/>
			</g>
			<g id="shape17-53" v:mID="17" v:groupContext="groupContent">
				<v:textBlock v:margins="rect(0,0,0,0)"/>
				<v:textRect cx="21.6359" cy="618.482" width="72" height="10.8036"/>
				<text x="-3.31" y="621.18" class="st6" v:langID="1033"><v:paragraph v:horizAlign="1"/><v:tabList/>VPN Gateway</text>			</g>
		</g>
		<g id="group34-55" transform="translate(284.4,-90.6586)" v:mID="34" v:groupContext="group">
			<v:userDefs>
				<v:ud v:nameU="msvDisableCustomConnectionPoints" v:prompt="" v:val="VT0(1):5"/>
			</v:userDefs>
			<title>Virtual Networks.34</title>
			<desc>VNet02 10.2.0.0/24 10.2.0.0/25 Tenant 10.2.0.128/25 Bast</desc>
			<g id="shape35-56" v:mID="35" v:groupContext="shape" transform="translate(37.0573,-13.5678)">
				<title>Sheet.35</title>
				<v:userDefs>
					<v:ud v:nameU="msvDisableCustomConnectionPoints" v:prompt="" v:val="VT0(1):5"/>
				</v:userDefs>
				<ellipse cx="3.71076" cy="608.289" rx="3.71076" ry="3.71076" class="st2"/>
			</g>
			<g id="shape36-59" v:mID="36" v:groupContext="shape" transform="translate(25.2213,-13.5358)">
				<title>Sheet.36</title>
				<v:userDefs>
					<v:ud v:nameU="msvDisableCustomConnectionPoints" v:prompt="" v:val="VT0(1):5"/>
				</v:userDefs>
				<ellipse cx="3.71076" cy="608.289" rx="3.71076" ry="3.71076" class="st3"/>
			</g>
			<g id="shape37-62" v:mID="37" v:groupContext="shape" transform="translate(13.3852,-13.5358)">
				<title>Sheet.37</title>
				<v:userDefs>
					<v:ud v:nameU="msvDisableCustomConnectionPoints" v:prompt="" v:val="VT0(1):5"/>
				</v:userDefs>
				<ellipse cx="3.71076" cy="608.289" rx="3.71076" ry="3.71076" class="st3"/>
			</g>
			<g id="shape38-65" v:mID="38" v:groupContext="shape" transform="translate(441.28,1018.11) rotate(134.92)">
				<title>Sheet.38</title>
				<v:userDefs>
					<v:ud v:nameU="msvDisableCustomConnectionPoints" v:prompt="" v:val="VT0(1):5"/>
				</v:userDefs>
				<path d="M8.35 586.92 L11.36 586.92 a0.959679 0.959679 0 0 1 0.959679 0.959679 L12.32 610.08 A1.91936 1.91936 0 0
							 1 10.4 612 L7.39 612 L7.39 587.88 a0.959679 0.959679 0 0 1 0.959679 -0.959679 Z" class="st4"/>
			</g>
			<g id="shape39-67" v:mID="39" v:groupContext="shape" transform="translate(426.23,156.199) rotate(44.92)">
				<title>Sheet.39</title>
				<v:userDefs>
					<v:ud v:nameU="msvDisableCustomConnectionPoints" v:prompt="" v:val="VT0(1):5"/>
				</v:userDefs>
				<path d="M8.19 587.27 L11.2 587.27 a0.959679 0.959679 0 0 1 0.959679 0.959679 L12.16 612 L9.15 612 A1.91936 1.91936
							 0 0 1 7.23 610.08 L7.23 588.23 a0.959679 0.959679 0 0 1 0.959679 -0.959679 Z" class="st5"/>
			</g>
			<g id="shape40-69" v:mID="40" v:groupContext="shape" transform="translate(470.491,176.735) rotate(45.08)">
				<title>Sheet.40</title>
				<v:userDefs>
					<v:ud v:nameU="msvDisableCustomConnectionPoints" v:prompt="" v:val="VT0(1):5"/>
				</v:userDefs>
				<path d="M0 586.92 L3.01 586.92 A1.91936 1.91936 0 0 1 4.93 588.84 L4.93 611.04 a0.959679 0.959679 0 0 1 -0.959679
							 0.959679 L0.96 612 a0.959679 0.959679 0 0 1 -0.959679 -0.959679 L0 586.92 Z" class="st4"/>
			</g>
			<g id="shape41-71" v:mID="41" v:groupContext="shape" transform="translate(473.079,1010.46) rotate(135.08)">
				<title>Sheet.41</title>
				<v:userDefs>
					<v:ud v:nameU="msvDisableCustomConnectionPoints" v:prompt="" v:val="VT0(1):5"/>
				</v:userDefs>
				<path d="M1.95 587.27 L4.96 587.27 L4.96 611.04 a0.959679 0.959679 0 0 1 -0.959679 0.959679 L0.96 612 a0.959679 0.959679
							 0 0 1 -0.959679 -0.959679 L0 589.19 A1.91936 1.91936 0 0 1 1.92 587.27 L1.95 587.27 Z" class="st5"/>
			</g>
			<g id="shape34-73" v:mID="34" v:groupContext="groupContent">
				<v:textBlock v:margins="rect(0,0,0,0)"/>
				<v:textRect cx="28.8" cy="637.922" width="72" height="43.2036"/>
				<text x="15.03" y="624.42" class="st6" v:langID="1033"><v:paragraph v:horizAlign="1"/><v:tabList/>VNet02<v:newlineChar/><tspan
							x="7.69" dy="1.2em" class="st7">10.2.0.0/24<v:newlineChar/></tspan><tspan x="-6.15" dy="1.2em"
							class="st7">10.2.0.0/25 Tenant<v:newlineChar/></tspan><tspan x="-5.76" dy="1.2em" class="st7">10.2.0.128/25 Bast</tspan></text>			</g>
		</g>
		<g id="group43-78" transform="translate(545.4,-91.5017)" v:mID="43" v:groupContext="group">
			<v:userDefs>
				<v:ud v:nameU="msvDisableCustomConnectionPoints" v:prompt="" v:val="VT0(1):5"/>
			</v:userDefs>
			<title>Virtual Networks.43</title>
			<desc>VNet03 10.3.0.0/24 10.3.0.0/24 Tenant</desc>
			<g id="shape44-79" v:mID="44" v:groupContext="shape" transform="translate(37.0573,-13.5678)">
				<title>Sheet.44</title>
				<v:userDefs>
					<v:ud v:nameU="msvDisableCustomConnectionPoints" v:prompt="" v:val="VT0(1):5"/>
				</v:userDefs>
				<ellipse cx="3.71076" cy="608.289" rx="3.71076" ry="3.71076" class="st2"/>
			</g>
			<g id="shape45-82" v:mID="45" v:groupContext="shape" transform="translate(25.2213,-13.5358)">
				<title>Sheet.45</title>
				<v:userDefs>
					<v:ud v:nameU="msvDisableCustomConnectionPoints" v:prompt="" v:val="VT0(1):5"/>
				</v:userDefs>
				<ellipse cx="3.71076" cy="608.289" rx="3.71076" ry="3.71076" class="st3"/>
			</g>
			<g id="shape46-85" v:mID="46" v:groupContext="shape" transform="translate(13.3852,-13.5358)">
				<title>Sheet.46</title>
				<v:userDefs>
					<v:ud v:nameU="msvDisableCustomConnectionPoints" v:prompt="" v:val="VT0(1):5"/>
				</v:userDefs>
				<ellipse cx="3.71076" cy="608.289" rx="3.71076" ry="3.71076" class="st3"/>
			</g>
			<g id="shape47-88" v:mID="47" v:groupContext="shape" transform="translate(441.28,1018.11) rotate(134.92)">
				<title>Sheet.47</title>
				<v:userDefs>
					<v:ud v:nameU="msvDisableCustomConnectionPoints" v:prompt="" v:val="VT0(1):5"/>
				</v:userDefs>
				<path d="M8.35 586.92 L11.36 586.92 a0.959679 0.959679 0 0 1 0.959679 0.959679 L12.32 610.08 A1.91936 1.91936 0 0
							 1 10.4 612 L7.39 612 L7.39 587.88 a0.959679 0.959679 0 0 1 0.959679 -0.959679 Z" class="st4"/>
			</g>
			<g id="shape48-90" v:mID="48" v:groupContext="shape" transform="translate(426.23,156.199) rotate(44.92)">
				<title>Sheet.48</title>
				<v:userDefs>
					<v:ud v:nameU="msvDisableCustomConnectionPoints" v:prompt="" v:val="VT0(1):5"/>
				</v:userDefs>
				<path d="M8.19 587.27 L11.2 587.27 a0.959679 0.959679 0 0 1 0.959679 0.959679 L12.16 612 L9.15 612 A1.91936 1.91936
							 0 0 1 7.23 610.08 L7.23 588.23 a0.959679 0.959679 0 0 1 0.959679 -0.959679 Z" class="st5"/>
			</g>
			<g id="shape49-92" v:mID="49" v:groupContext="shape" transform="translate(470.491,176.735) rotate(45.08)">
				<title>Sheet.49</title>
				<v:userDefs>
					<v:ud v:nameU="msvDisableCustomConnectionPoints" v:prompt="" v:val="VT0(1):5"/>
				</v:userDefs>
				<path d="M0 586.92 L3.01 586.92 A1.91936 1.91936 0 0 1 4.93 588.84 L4.93 611.04 a0.959679 0.959679 0 0 1 -0.959679
							 0.959679 L0.96 612 a0.959679 0.959679 0 0 1 -0.959679 -0.959679 L0 586.92 Z" class="st4"/>
			</g>
			<g id="shape50-94" v:mID="50" v:groupContext="shape" transform="translate(473.079,1010.46) rotate(135.08)">
				<title>Sheet.50</title>
				<v:userDefs>
					<v:ud v:nameU="msvDisableCustomConnectionPoints" v:prompt="" v:val="VT0(1):5"/>
				</v:userDefs>
				<path d="M1.95 587.27 L4.96 587.27 L4.96 611.04 a0.959679 0.959679 0 0 1 -0.959679 0.959679 L0.96 612 a0.959679 0.959679
							 0 0 1 -0.959679 -0.959679 L0 589.19 A1.91936 1.91936 0 0 1 1.92 587.27 L1.95 587.27 Z" class="st5"/>
			</g>
			<g id="shape43-96" v:mID="43" v:groupContext="groupContent">
				<v:textBlock v:margins="rect(0,0,0,0)"/>
				<v:textRect cx="28.8" cy="631.442" width="72" height="32.4036"/>
				<text x="15.03" y="623.34" class="st6" v:langID="1033"><v:paragraph v:horizAlign="1"/><v:tabList/>VNet03<v:newlineChar/><tspan
							x="7.69" dy="1.2em" class="st7">10.3.0.0/24<v:newlineChar/></tspan><tspan x="-6.15" dy="1.2em"
							class="st7">10.3.0.0/24 Tenant</tspan></text>			</g>
		</g>
		<g id="group62-100" transform="translate(270,-389.204)" v:mID="62" v:groupContext="group">
			<v:userDefs>
				<v:ud v:nameU="msvDisableCustomConnectionPoints" v:prompt="" v:val="VT0(1):5"/>
			</v:userDefs>
			<title>Virtual Machine</title>
			<desc>Virtual Machine</desc>
			<g id="shape63-101" v:mID="63" v:groupContext="shape" transform="translate(0,-14.816)">
				<title>Sheet.63</title>
				<v:userDefs>
					<v:ud v:nameU="msvDisableCustomConnectionPoints" v:prompt="" v:val="VT0(1):5"/>
				</v:userDefs>
				<path d="M0 610.08 A1.92004 1.92004 -180 0 0 1.92 612 L55.68 612 A1.92004 1.92004 -180 0 0 57.6 610.08 L57.6 575.52
							 A1.92004 1.92004 -180 0 0 55.68 573.6 L1.92 573.6 A1.92004 1.92004 -180 0 0 -0 575.52 L0 610.08 Z"
						class="st12"/>
			</g>
			<g id="shape64-105" v:mID="64" v:groupContext="shape" transform="translate(28.8,-22.816)">
				<title>Sheet.64</title>
				<v:userDefs>
					<v:ud v:nameU="msvDisableCustomConnectionPoints" v:prompt="" v:val="VT0(1):5"/>
				</v:userDefs>
				<path d="M9.6 595.2 L9.6 606.37 L0 612 L0 600.8 L9.6 595.2 Z" class="st4"/>
			</g>
			<g id="shape65-107" v:mID="65" v:groupContext="shape" transform="translate(19.2,-33.984)">
				<title>Sheet.65</title>
				<v:userDefs>
					<v:ud v:nameU="msvDisableCustomConnectionPoints" v:prompt="" v:val="VT0(1):5"/>
				</v:userDefs>
				<path d="M19.2 606.37 L9.6 612 L0 606.37 L9.6 600.77 L19.2 606.37 Z" class="st13"/>
			</g>
			<g id="shape66-109" v:mID="66" v:groupContext="shape" transform="translate(19.2,-22.816)">
				<title>Sheet.66</title>
				<v:userDefs>
					<v:ud v:nameU="msvDisableCustomConnectionPoints" v:prompt="" v:val="VT0(1):5"/>
				</v:userDefs>
				<path d="M9.6 600.83 L9.6 612 L0 606.37 L0 595.2 L9.6 600.83 Z" class="st14"/>
			</g>
			<g id="shape67-111" v:mID="67" v:groupContext="shape" transform="translate(19.2,-22.816)">
				<title>Sheet.67</title>
				<v:userDefs>
					<v:ud v:nameU="msvDisableCustomConnectionPoints" v:prompt="" v:val="VT0(1):5"/>
				</v:userDefs>
				<path d="M0 606.37 L9.6 600.8 L9.6 612 L0 606.37 Z" class="st13"/>
			</g>
			<g id="shape68-113" v:mID="68" v:groupContext="shape" transform="translate(28.8,-22.816)">
				<title>Sheet.68</title>
				<v:userDefs>
					<v:ud v:nameU="msvDisableCustomConnectionPoints" v:prompt="" v:val="VT0(1):5"/>
				</v:userDefs>
				<path d="M9.6 606.37 L0 600.8 L0 612 L9.6 606.37 Z" class="st14"/>
			</g>
			<g id="shape69-115" v:mID="69" v:groupContext="shape" transform="translate(14.4,0)">
				<title>Sheet.69</title>
				<v:userDefs>
					<v:ud v:nameU="msvDisableCustomConnectionPoints" v:prompt="" v:val="VT0(1):5"/>
				</v:userDefs>
				<path d="M25.95 608.8 C20.26 607.9 20.03 603.81 20.03 597.18 L8.74 597.18 C8.74 603.81 8.54 607.9 2.85 608.8 A3.2
							 3.2 -180 0 0 0 612 L28.8 612 A3.2 3.2 -180 0 0 25.95 608.8 Z" class="st15"/>
			</g>
			<g id="shape62-119" v:mID="62" v:groupContext="groupContent">
				<v:textBlock v:margins="rect(0,0,0,0)"/>
				<v:textRect cx="28.8" cy="618.482" width="72" height="10.8036"/>
				<text x="-0.34" y="621.18" class="st6" v:langID="1033"><v:paragraph v:horizAlign="1"/><v:tabList/>Virtual Machine</text>			</g>
		</g>
		<g id="group70-121" transform="translate(243,-171)" v:mID="70" v:groupContext="group">
			<v:userDefs>
				<v:ud v:nameU="msvDisableCustomConnectionPoints" v:prompt="" v:val="VT0(1):5"/>
			</v:userDefs>
			<title>Virtual Machine.70</title>
			<desc>Virtual Machine</desc>
			<g id="shape71-122" v:mID="71" v:groupContext="shape" transform="translate(0,-14.816)">
				<title>Sheet.71</title>
				<v:userDefs>
					<v:ud v:nameU="msvDisableCustomConnectionPoints" v:prompt="" v:val="VT0(1):5"/>
				</v:userDefs>
				<path d="M0 610.08 A1.92004 1.92004 -180 0 0 1.92 612 L55.68 612 A1.92004 1.92004 -180 0 0 57.6 610.08 L57.6 575.52
							 A1.92004 1.92004 -180 0 0 55.68 573.6 L1.92 573.6 A1.92004 1.92004 -180 0 0 -0 575.52 L0 610.08 Z"
						class="st12"/>
			</g>
			<g id="shape72-125" v:mID="72" v:groupContext="shape" transform="translate(28.8,-22.816)">
				<title>Sheet.72</title>
				<v:userDefs>
					<v:ud v:nameU="msvDisableCustomConnectionPoints" v:prompt="" v:val="VT0(1):5"/>
				</v:userDefs>
				<path d="M9.6 595.2 L9.6 606.37 L0 612 L0 600.8 L9.6 595.2 Z" class="st4"/>
			</g>
			<g id="shape73-127" v:mID="73" v:groupContext="shape" transform="translate(19.2,-33.984)">
				<title>Sheet.73</title>
				<v:userDefs>
					<v:ud v:nameU="msvDisableCustomConnectionPoints" v:prompt="" v:val="VT0(1):5"/>
				</v:userDefs>
				<path d="M19.2 606.37 L9.6 612 L0 606.37 L9.6 600.77 L19.2 606.37 Z" class="st13"/>
			</g>
			<g id="shape74-129" v:mID="74" v:groupContext="shape" transform="translate(19.2,-22.816)">
				<title>Sheet.74</title>
				<v:userDefs>
					<v:ud v:nameU="msvDisableCustomConnectionPoints" v:prompt="" v:val="VT0(1):5"/>
				</v:userDefs>
				<path d="M9.6 600.83 L9.6 612 L0 606.37 L0 595.2 L9.6 600.83 Z" class="st14"/>
			</g>
			<g id="shape75-131" v:mID="75" v:groupContext="shape" transform="translate(19.2,-22.816)">
				<title>Sheet.75</title>
				<v:userDefs>
					<v:ud v:nameU="msvDisableCustomConnectionPoints" v:prompt="" v:val="VT0(1):5"/>
				</v:userDefs>
				<path d="M0 606.37 L9.6 600.8 L9.6 612 L0 606.37 Z" class="st13"/>
			</g>
			<g id="shape76-133" v:mID="76" v:groupContext="shape" transform="translate(28.8,-22.816)">
				<title>Sheet.76</title>
				<v:userDefs>
					<v:ud v:nameU="msvDisableCustomConnectionPoints" v:prompt="" v:val="VT0(1):5"/>
				</v:userDefs>
				<path d="M9.6 606.37 L0 600.8 L0 612 L9.6 606.37 Z" class="st14"/>
			</g>
			<g id="shape77-135" v:mID="77" v:groupContext="shape" transform="translate(14.4,0)">
				<title>Sheet.77</title>
				<v:userDefs>
					<v:ud v:nameU="msvDisableCustomConnectionPoints" v:prompt="" v:val="VT0(1):5"/>
				</v:userDefs>
				<path d="M25.95 608.8 C20.26 607.9 20.03 603.81 20.03 597.18 L8.74 597.18 C8.74 603.81 8.54 607.9 2.85 608.8 A3.2
							 3.2 -180 0 0 0 612 L28.8 612 A3.2 3.2 -180 0 0 25.95 608.8 Z" class="st15"/>
			</g>
			<g id="shape70-138" v:mID="70" v:groupContext="groupContent">
				<v:textBlock v:margins="rect(0,0,0,0)"/>
				<v:textRect cx="28.8" cy="618.482" width="72" height="10.8036"/>
				<text x="-0.34" y="621.18" class="st6" v:langID="1033"><v:paragraph v:horizAlign="1"/><v:tabList/>Virtual Machine</text>			</g>
		</g>
		<g id="group78-140" transform="translate(493.2,-144.784)" v:mID="78" v:groupContext="group">
			<v:userDefs>
				<v:ud v:nameU="msvDisableCustomConnectionPoints" v:prompt="" v:val="VT0(1):5"/>
			</v:userDefs>
			<title>Virtual Machine.78</title>
			<desc>Virtual Machine</desc>
			<g id="shape79-141" v:mID="79" v:groupContext="shape" transform="translate(0,-14.816)">
				<title>Sheet.79</title>
				<v:userDefs>
					<v:ud v:nameU="msvDisableCustomConnectionPoints" v:prompt="" v:val="VT0(1):5"/>
				</v:userDefs>
				<path d="M0 610.08 A1.92004 1.92004 -180 0 0 1.92 612 L55.68 612 A1.92004 1.92004 -180 0 0 57.6 610.08 L57.6 575.52
							 A1.92004 1.92004 -180 0 0 55.68 573.6 L1.92 573.6 A1.92004 1.92004 -180 0 0 -0 575.52 L0 610.08 Z"
						class="st12"/>
			</g>
			<g id="shape80-144" v:mID="80" v:groupContext="shape" transform="translate(28.8,-22.816)">
				<title>Sheet.80</title>
				<v:userDefs>
					<v:ud v:nameU="msvDisableCustomConnectionPoints" v:prompt="" v:val="VT0(1):5"/>
				</v:userDefs>
				<path d="M9.6 595.2 L9.6 606.37 L0 612 L0 600.8 L9.6 595.2 Z" class="st4"/>
			</g>
			<g id="shape81-146" v:mID="81" v:groupContext="shape" transform="translate(19.2,-33.984)">
				<title>Sheet.81</title>
				<v:userDefs>
					<v:ud v:nameU="msvDisableCustomConnectionPoints" v:prompt="" v:val="VT0(1):5"/>
				</v:userDefs>
				<path d="M19.2 606.37 L9.6 612 L0 606.37 L9.6 600.77 L19.2 606.37 Z" class="st13"/>
			</g>
			<g id="shape82-148" v:mID="82" v:groupContext="shape" transform="translate(19.2,-22.816)">
				<title>Sheet.82</title>
				<v:userDefs>
					<v:ud v:nameU="msvDisableCustomConnectionPoints" v:prompt="" v:val="VT0(1):5"/>
				</v:userDefs>
				<path d="M9.6 600.83 L9.6 612 L0 606.37 L0 595.2 L9.6 600.83 Z" class="st14"/>
			</g>
			<g id="shape83-150" v:mID="83" v:groupContext="shape" transform="translate(19.2,-22.816)">
				<title>Sheet.83</title>
				<v:userDefs>
					<v:ud v:nameU="msvDisableCustomConnectionPoints" v:prompt="" v:val="VT0(1):5"/>
				</v:userDefs>
				<path d="M0 606.37 L9.6 600.8 L9.6 612 L0 606.37 Z" class="st13"/>
			</g>
			<g id="shape84-152" v:mID="84" v:groupContext="shape" transform="translate(28.8,-22.816)">
				<title>Sheet.84</title>
				<v:userDefs>
					<v:ud v:nameU="msvDisableCustomConnectionPoints" v:prompt="" v:val="VT0(1):5"/>
				</v:userDefs>
				<path d="M9.6 606.37 L0 600.8 L0 612 L9.6 606.37 Z" class="st14"/>
			</g>
			<g id="shape85-154" v:mID="85" v:groupContext="shape" transform="translate(14.4,0)">
				<title>Sheet.85</title>
				<v:userDefs>
					<v:ud v:nameU="msvDisableCustomConnectionPoints" v:prompt="" v:val="VT0(1):5"/>
				</v:userDefs>
				<path d="M25.95 608.8 C20.26 607.9 20.03 603.81 20.03 597.18 L8.74 597.18 C8.74 603.81 8.54 607.9 2.85 608.8 A3.2
							 3.2 -180 0 0 0 612 L28.8 612 A3.2 3.2 -180 0 0 25.95 608.8 Z" class="st15"/>
			</g>
			<g id="shape78-157" v:mID="78" v:groupContext="groupContent">
				<v:textBlock v:margins="rect(0,0,0,0)"/>
				<v:textRect cx="28.8" cy="618.482" width="72" height="10.8036"/>
				<text x="-0.34" y="621.18" class="st6" v:langID="1033"><v:paragraph v:horizAlign="1"/><v:tabList/>Virtual Machine</text>			</g>
		</g>
		<g id="group86-159" transform="translate(410.4,-140.4)" v:mID="86" v:groupContext="group">
			<v:userDefs>
				<v:ud v:nameU="msvDisableCustomConnectionPoints" v:prompt="" v:val="VT0(1):5"/>
			</v:userDefs>
			<title>Virtual Router Networking</title>
			<desc>Linux S2S StrongSwan</desc>
			<g id="group87-160" v:mID="87" v:groupContext="group">
				<v:userDefs>
					<v:ud v:nameU="msvDisableCustomConnectionPoints" v:prompt="" v:val="VT0(1):5"/>
				</v:userDefs>
				<title>Sheet.87</title>
				<g id="shape88-161" v:mID="88" v:groupContext="shape">
					<title>Sheet.88</title>
					<v:userDefs>
						<v:ud v:nameU="msvDisableCustomConnectionPoints" v:prompt="" v:val="VT0(1):5"/>
					</v:userDefs>
					<ellipse cx="28.8" cy="583.2" rx="28.8" ry="28.8" class="st16"/>
				</g>
				<g id="group89-165" transform="translate(3.94189,-3.75717)" v:mID="89" v:groupContext="group">
					<v:userDefs>
						<v:ud v:nameU="msvDisableCustomConnectionPoints" v:prompt="" v:val="VT0(1):5"/>
					</v:userDefs>
					<title>Sheet.89</title>
					<g id="shape90-166" v:mID="90" v:groupContext="shape" transform="translate(16.4708,-30.4266)">
						<title>Sheet.90</title>
						<v:userDefs>
							<v:ud v:nameU="msvDisableCustomConnectionPoints" v:prompt="" v:val="VT0(1):5"/>
						</v:userDefs>
						<path d="M0.09 600.57 L8.04 592.62 a0.943979 0.943979 0 0 1 1.33817 -1.13687E-13 L17.33 600.57 a0.421851
									 0.421851 0 0 1 -0.297371 0.72268 L12.14 601.29 a0.421851 0.421851 -180 0 0 -0.421851 0.425309
									 L11.72 611.65 a0.34578 0.34578 0 0 1 -0.34578 0.34578 L6.04 612 a0.34578 0.34578 0 0 1 -0.34578
									 -0.34578 L5.69 601.72 a0.421851 0.421851 -180 0 0 -0.418394 -0.425309 L0.39 601.29 a0.425309
									 0.425309 0 0 1 -0.300828 -0.72268 Z" class="st14"/>
					</g>
					<g id="shape91-168" v:mID="91" v:groupContext="shape" transform="translate(16.4673,-2.27374E-13)">
						<title>Sheet.91</title>
						<v:userDefs>
							<v:ud v:nameU="msvDisableCustomConnectionPoints" v:prompt="" v:val="VT0(1):5"/>
						</v:userDefs>
						<path d="M17.33 603.77 L9.38 611.72 a0.943979 0.943979 0 0 1 -1.33817 0 L0.09 603.77 a0.425309 0.425309 0
									 0 1 0.300828 -0.72268 L5.28 603.05 a0.421851 0.421851 -180 0 0 0.421851 -0.425309 L5.7 592.69
									 a0.34578 0.34578 0 0 1 0.34578 -0.34578 L11.39 592.34 a0.34578 0.34578 0 0 1 0.34578 0.34578
									 L11.73 602.62 a0.421851 0.421851 -180 0 0 0.421851 0.425309 L17.04 603.05 a0.421851 0.421851
									 0 0 1 0.297371 0.72268 Z" class="st14"/>
					</g>
					<g id="shape92-170" v:mID="92" v:groupContext="shape" transform="translate(30.0572,-16.2634)">
						<title>Sheet.92</title>
						<v:userDefs>
							<v:ud v:nameU="msvDisableCustomConnectionPoints" v:prompt="" v:val="VT0(1):5"/>
						</v:userDefs>
						<path d="M8.23 611.91 L0.28 603.96 a0.943979 0.943979 0 0 1 -1.17684E-14 -1.33817 L8.23 594.67 a0.421851
									 0.421851 0 0 1 0.72268 0.297371 L8.95 599.86 a0.425309 0.425309 -180 0 0 0.421851 0.425309 L19.31
									 600.28 a0.34578 0.34578 0 0 1 0.34578 0.34578 L19.66 605.96 a0.34578 0.34578 0 0 1 -0.34578
									 0.34578 L9.38 606.3 a0.421851 0.421851 -180 0 0 -0.421851 0.421851 L8.95 611.62 a0.425309 0.425309
									 0 0 1 -0.72268 0.293913 Z" class="st17"/>
					</g>
					<g id="shape93-172" v:mID="93" v:groupContext="shape" transform="translate(0,-16.2613)">
						<title>Sheet.93</title>
						<v:userDefs>
							<v:ud v:nameU="msvDisableCustomConnectionPoints" v:prompt="" v:val="VT0(1):5"/>
						</v:userDefs>
						<path d="M11.43 594.67 L19.38 602.62 a0.943979 0.943979 0 0 1 3.55271E-15 1.33817 L11.43 611.91 a0.425309
									 0.425309 0 0 1 -0.72268 -0.300828 L10.71 606.72 a0.421851 0.421851 -180 0 0 -0.421851 -0.421851
									 L0.35 606.3 a0.34578 0.34578 0 0 1 -0.34578 -0.34578 L0 600.61 a0.34578 0.34578 0 0 1 0.34578
									 -0.34578 L10.28 600.27 a0.425309 0.425309 -180 0 0 0.421851 -0.425309 L10.71 594.96 a0.421851
									 0.421851 0 0 1 0.72268 -0.297371 Z" class="st17"/>
					</g>
				</g>
			</g>
			<g id="shape86-174" v:mID="86" v:groupContext="groupContent">
				<v:textBlock v:margins="rect(0,0,0,0)"/>
				<v:textRect cx="28.8" cy="624.962" width="72" height="21.6036"/>
				<text x="11.76" y="622.26" class="st6" v:langID="1033"><v:paragraph v:horizAlign="1"/><v:tabList/>Linux S2S<v:newlineChar/><tspan
							x="7" dy="1.2em" class="st7">StrongSwan</tspan></text>			</g>
		</g>
		<g id="shape94-177" v:mID="94" v:groupContext="shape" v:layerMember="0" transform="translate(271.8,-224.216)">
			<title>Dynamic connector</title>
			<path d="M0 612 L90.48 527.54" class="st18"/>
		</g>
		<g id="shape95-183" v:mID="95" v:groupContext="shape" v:layerMember="0" transform="translate(405.145,-287.157)">
			<title>Dynamic connector.95</title>
			<path d="M-7.34 612 L-9.88 592.35" class="st18"/>
		</g>
		<g id="shape96-188" v:mID="96" v:groupContext="shape" v:layerMember="0" transform="translate(439.2,-198)">
			<title>Dynamic connector.96</title>
			<path d="M0 612 L-26.27 573.71" class="st18"/>
		</g>
		<g id="shape97-193" v:mID="97" v:groupContext="shape" v:layerMember="0" transform="translate(493.2,-179.296)">
			<title>Dynamic connector.97</title>
			<path d="M0 619.9 L-19.18 621.57" class="st18"/>
		</g>
		<g id="group25-198" transform="translate(362.7,-312.796)" v:mID="25" v:groupContext="group">
			<v:userDefs>
				<v:ud v:nameU="msvDisableCustomConnectionPoints" v:prompt="" v:val="VT0(1):5"/>
			</v:userDefs>
			<title>Public IP Addresses</title>
			<desc>Public IP Address</desc>
			<g id="shape26-199" v:mID="26" v:groupContext="shape">
				<title>Sheet.26</title>
				<v:userDefs>
					<v:ud v:nameU="msvDisableCustomConnectionPoints" v:prompt="" v:val="VT0(1):5"/>
				</v:userDefs>
				<path d="M0 577.95 L57.6 577.95 L57.6 610.07 A1.93129 1.93129 0 0 1 55.67 612 L1.93 612 A1.93129 1.93129 0 0 1 0
							 610.07 L0 577.95 Z" class="st20"/>
			</g>
			<g id="shape27-203" v:mID="27" v:groupContext="shape" transform="translate(0,-34.0518)">
				<title>Sheet.27</title>
				<v:userDefs>
					<v:ud v:nameU="msvDisableCustomConnectionPoints" v:prompt="" v:val="VT0(1):5"/>
				</v:userDefs>
				<path d="M1.93 599.73 L55.67 599.73 A1.93129 1.93129 0 0 1 57.6 601.67 L57.6 612 L0 612 L0 601.63 A1.93129 1.93129
							 0 0 1 1.93 599.73 Z" class="st21"/>
			</g>
			<g id="shape28-205" v:mID="28" v:groupContext="shape" transform="translate(37.0673,-14.4678)">
				<title>Sheet.28</title>
				<v:userDefs>
					<v:ud v:nameU="msvDisableCustomConnectionPoints" v:prompt="" v:val="VT0(1):5"/>
				</v:userDefs>
				<ellipse cx="4.67576" cy="607.324" rx="4.67576" ry="4.67576" class="st17"/>
			</g>
			<g id="shape29-207" v:mID="29" v:groupContext="shape" transform="translate(24.3275,-14.4678)">
				<title>Sheet.29</title>
				<v:userDefs>
					<v:ud v:nameU="msvDisableCustomConnectionPoints" v:prompt="" v:val="VT0(1):5"/>
				</v:userDefs>
				<ellipse cx="4.67576" cy="607.324" rx="4.67576" ry="4.67576" class="st17"/>
			</g>
			<g id="shape30-209" v:mID="30" v:groupContext="shape" transform="translate(11.1812,-14.4678)">
				<title>Sheet.30</title>
				<v:userDefs>
					<v:ud v:nameU="msvDisableCustomConnectionPoints" v:prompt="" v:val="VT0(1):5"/>
				</v:userDefs>
				<ellipse cx="4.67576" cy="607.324" rx="4.67576" ry="4.67576" class="st17"/>
			</g>
			<g id="shape31-211" v:mID="31" v:groupContext="shape" transform="translate(7.75906,-37.7111)">
				<title>Sheet.31</title>
				<v:userDefs>
					<v:ud v:nameU="msvDisableCustomConnectionPoints" v:prompt="" v:val="VT0(1):5"/>
				</v:userDefs>
				<path d="M0 611.05 a0.948728 0.948728 -180 0 0 0.948706 0.948706 L41.17 612 a0.948728 0.948728 -180 0 0 0.948706
							 -0.948706 L42.12 608 a0.948728 0.948728 -180 0 0 -0.948706 -0.948706 L0.95 607.05 a0.948728 0.948728
							 -180 0 0 -0.948706 0.948706 L0 611.05 Z" class="st17"/>
			</g>
			<g id="shape25-213" v:mID="25" v:groupContext="groupContent">
				<v:textBlock v:margins="rect(0,0,0,0)"/>
				<v:textRect cx="28.8" cy="618.482" width="72" height="10.8036"/>
				<text x="-2.37" y="621.18" class="st6" v:langID="1033"><v:paragraph v:horizAlign="1"/><v:tabList/>Public IP Address</text>			</g>
		</g>
		<g id="shape98-215" v:mID="98" v:groupContext="shape" v:layerMember="0" transform="translate(382.5,-359.113)">
			<title>Dynamic connector.98</title>
			<path d="M9 612 L9 598.75" class="st18"/>
		</g>
	</g>
</svg>
